<?xml version="1.0" encoding="UTF-8"?>
<svg version="1.1" xmlns="http://www.w3.org/2000/svg" width="99" height="80">
<path d="M0 0 C32.67 0 65.34 0 99 0 C99 26.4 99 52.8 99 80 C66.33 80 33.66 80 0 80 C0 53.6 0 27.2 0 0 Z " fill="#FAFAFA" transform="translate(0,0)"/>
<path d="M0 0 C3.5 0.125 3.5 0.125 4.5 1.125 C4.57313567 3.65549402 4.59247527 6.15804837 4.5625 8.6875 C4.55798828 9.39841797 4.55347656 10.10933594 4.54882812 10.84179688 C4.53700864 12.60290013 4.51907263 14.36396036 4.5 16.125 C8.13 16.125 11.76 16.125 15.5 16.125 C15.48839844 15.05378906 15.47679688 13.98257812 15.46484375 12.87890625 C15.45546701 11.48177257 15.44636669 10.08463701 15.4375 8.6875 C15.42912109 7.98044922 15.42074219 7.27339844 15.41210938 6.54492188 C15.40346412 4.73806441 15.44779989 2.93112397 15.5 1.125 C16.5 0.125 16.5 0.125 18.34765625 0.02734375 C20.3984375 0.05989583 22.44921875 0.09244792 24.5 0.125 C24.52464705 5.80330078 24.54283462 11.48157069 24.55493164 17.15991211 C24.55997256 19.09318585 24.56680519 21.02645576 24.57543945 22.9597168 C24.58751565 25.73226872 24.59323057 28.50477041 24.59765625 31.27734375 C24.60281754 32.14713364 24.60797882 33.01692352 24.61329651 33.91307068 C24.61349185 35.98405814 24.56208168 38.05494324 24.5 40.125 C23.5 41.125 23.5 41.125 20 41.25 C16.5 41.125 16.5 41.125 15.5 40.125 C15.42686433 37.59450598 15.40752473 35.09195163 15.4375 32.5625 C15.44201172 31.85158203 15.44652344 31.14066406 15.45117188 30.40820312 C15.46299136 28.64709987 15.48092737 26.88603964 15.5 25.125 C11.87 25.125 8.24 25.125 4.5 25.125 C4.51160156 26.19621094 4.52320313 27.26742187 4.53515625 28.37109375 C4.54453299 29.76822743 4.55363331 31.16536299 4.5625 32.5625 C4.57087891 33.26955078 4.57925781 33.97660156 4.58789062 34.70507812 C4.59653588 36.51193559 4.55220011 38.31887603 4.5 40.125 C3.5 41.125 3.5 41.125 0 41.25 C-3.5 41.125 -3.5 41.125 -4.5 40.125 C-4.60106874 37.25235944 -4.63969672 34.40426372 -4.6328125 31.53125 C-4.63376923 30.66939087 -4.63472595 29.80753174 -4.63571167 28.91955566 C-4.6363935 27.09366788 -4.63453904 25.26777769 -4.63037109 23.44189453 C-4.62502286 20.63698922 -4.63031599 17.83224405 -4.63671875 15.02734375 C-4.63605797 13.25781214 -4.63477681 11.48828064 -4.6328125 9.71875 C-4.63483673 8.87397095 -4.63686096 8.02919189 -4.63894653 7.15881348 C-4.61059089 0.16466396 -4.61059089 0.16466396 0 0 Z " fill="#F7B00C" transform="translate(25.5,4.875)"/>
<path d="M0 0 C4.23582327 -0.04938628 8.47149465 -0.08571263 12.70751953 -0.10986328 C14.14895547 -0.11992963 15.59037095 -0.1335838 17.03173828 -0.15087891 C19.10193934 -0.17510012 21.17187076 -0.18647641 23.2421875 -0.1953125 C25.11173096 -0.21102295 25.11173096 -0.21102295 27.01904297 -0.22705078 C30 0 30 0 32 2 C32.25 4.5 32.25 4.5 32 7 C30 9 30 9 27.8359375 9.1953125 C26.61777344 9.16050781 26.61777344 9.16050781 25.375 9.125 C24.55773437 9.10695313 23.74046875 9.08890625 22.8984375 9.0703125 C22.27195312 9.04710937 21.64546875 9.02390625 21 9 C21.00785522 10.40076782 21.00785522 10.40076782 21.01586914 11.82983398 C21.0328762 15.28312796 21.04543302 18.73637767 21.05493164 22.18969727 C21.05997121 23.68644918 21.06680287 25.18319616 21.07543945 26.67993164 C21.08752159 28.82699807 21.09323191 30.97399962 21.09765625 33.12109375 C21.10551147 35.06133423 21.10551147 35.06133423 21.11352539 37.04077148 C21 40 21 40 20 41 C18.1875 41.1328125 18.1875 41.1328125 16 41.125 C15.278125 41.12757812 14.55625 41.13015625 13.8125 41.1328125 C12 41 12 41 11 40 C10.91209025 37.70848583 10.89305962 35.41427476 10.90234375 33.12109375 C10.9037587 32.4344313 10.90517365 31.74776886 10.90663147 31.04029846 C10.91224521 28.83932199 10.92479993 26.63844591 10.9375 24.4375 C10.94251324 22.94856917 10.94707645 21.45963676 10.95117188 19.97070312 C10.96221907 16.31376925 10.97949287 12.65689442 11 9 C7.37 9 3.74 9 0 9 C0 6.03 0 3.06 0 0 Z " fill="#0CB2EF" transform="translate(50,5)"/>
<path d="M0 0 C3.5 0.125 3.5 0.125 4.5 1.125 C4.60106874 3.99764056 4.63969672 6.84573628 4.6328125 9.71875 C4.63376923 10.58060913 4.63472595 11.44246826 4.63571167 12.33044434 C4.6363935 14.15633212 4.63453904 15.98222231 4.63037109 17.80810547 C4.62502286 20.61301078 4.63031599 23.41775595 4.63671875 26.22265625 C4.63605797 27.99218786 4.63477681 29.76171936 4.6328125 31.53125 C4.63483673 32.37602905 4.63686096 33.22080811 4.63894653 34.09118652 C4.61495031 40.01004969 4.61495031 40.01004969 3.5 41.125 C0 41.25 0 41.25 -3.5 41.125 C-5.36962718 39.25537282 -4.62886303 36.57836439 -4.63894653 34.09118652 C-4.6369223 33.24640747 -4.63489807 32.40162842 -4.6328125 31.53125 C-4.63376923 30.66939087 -4.63472595 29.80753174 -4.63571167 28.91955566 C-4.6363935 27.09366788 -4.63453904 25.26777769 -4.63037109 23.44189453 C-4.62502286 20.63698922 -4.63031599 17.83224405 -4.63671875 15.02734375 C-4.63605797 13.25781214 -4.63477681 11.48828064 -4.6328125 9.71875 C-4.63483673 8.87397095 -4.63686096 8.02919189 -4.63894653 7.15881348 C-4.61059089 0.16466396 -4.61059089 0.16466396 0 0 Z " fill="#E5114F" transform="translate(25.5,4.875)"/>
<path d="M0 0 C12.77777778 0 12.77777778 0 17 1 C18 2 18 2 18.09765625 4.28515625 C18.08605469 5.20167969 18.07445313 6.11820312 18.0625 7.0625 C18.05347656 7.98160156 18.04445313 8.90070313 18.03515625 9.84765625 C18.02355469 10.55792969 18.01195313 11.26820312 18 12 C16.68 12 15.36 12 14 12 C14 9.36 14 6.72 14 4 C13.01 4 12.02 4 11 4 C11 6.64 11 9.28 11 12 C9.68 12 8.36 12 7 12 C7 9.36 7 6.72 7 4 C6.01 4 5.02 4 4 4 C4 6.64 4 9.28 4 12 C2.68 12 1.36 12 0 12 C0 8.04 0 4.08 0 0 Z " fill="#0A1D54" transform="translate(34,60)"/>
<path d="M0 0 C3.5 0.125 3.5 0.125 4.5 1.125 C4.57313567 3.65549402 4.59247527 6.15804837 4.5625 8.6875 C4.55798828 9.39841797 4.55347656 10.10933594 4.54882812 10.84179688 C4.53700864 12.60290013 4.51907263 14.36396036 4.5 16.125 C3.7575 16.393125 3.015 16.66125 2.25 16.9375 C-0.36636554 18.06729421 -2.30187111 19.33393202 -4.5 21.125 C-4.52888146 17.81251813 -4.54675799 14.50006833 -4.5625 11.1875 C-4.57087891 10.24197266 -4.57925781 9.29644531 -4.58789062 8.32226562 C-4.59111328 7.42314453 -4.59433594 6.52402344 -4.59765625 5.59765625 C-4.60289307 4.76500244 -4.60812988 3.93234863 -4.61352539 3.07446289 C-4.41154613 -0.39393372 -3.59257528 0.12830626 0 0 Z " fill="#F35086" transform="translate(25.5,4.875)"/>
<path d="M0 0 C2.1346875 0.3403125 2.1346875 0.3403125 4.3125 0.6875 C4.3125 4.3175 4.3125 7.9475 4.3125 11.6875 C-2.8875 13.0075 -2.8875 13.0075 -6.1875 11.6875 C-8.4676914 8.6472448 -8.14823582 6.37338657 -7.6875 2.6875 C-5.39476017 -0.54120007 -3.78901835 -0.6040464 0 0 Z " fill="#04164F" transform="translate(61.6875,60.3125)"/>
<path d="M0 0 C1.60875 -0.04125 3.2175 -0.0825 4.875 -0.125 C5.77992187 -0.14820313 6.68484375 -0.17140625 7.6171875 -0.1953125 C10 0 10 0 12 2 C12.1953125 4.3828125 12.1953125 4.3828125 12.125 7.125 C12.10695313 8.03507812 12.08890625 8.94515625 12.0703125 9.8828125 C12.04710938 10.58148438 12.02390625 11.28015625 12 12 C10.68 12 9.36 12 8 12 C8 9.36 8 6.72 8 4 C7.01 4 6.02 4 5 4 C5 6.64 5 9.28 5 12 C3.35 12 1.7 12 0 12 C0 8.04 0 4.08 0 0 Z " fill="#435881" transform="translate(68,60)"/>
<path d="M0 0 C2.29141286 -0.05384521 4.58318188 -0.09272087 6.875 -0.125 C8.78925781 -0.15980469 8.78925781 -0.15980469 10.7421875 -0.1953125 C14 0 14 0 16 2 C16.25 4.5 16.25 4.5 16 7 C14 9 14 9 11.8359375 9.1953125 C10.61777344 9.16050781 10.61777344 9.16050781 9.375 9.125 C8.55773437 9.10695313 7.74046875 9.08890625 6.8984375 9.0703125 C6.27195312 9.04710937 5.64546875 9.02390625 5 9 C4.54625 8.071875 4.0925 7.14375 3.625 6.1875 C2.0578367 2.96078611 2.0578367 2.96078611 0 0 Z " fill="#081F58" transform="translate(66,5)"/>
<path d="M0 0 C1.32 0 2.64 0 4 0 C4.33 2.64 4.66 5.28 5 8 C5.66 8 6.32 8 7 8 C7.33 5.36 7.66 2.72 8 0 C9.32 0 10.64 0 12 0 C12.10824843 1.6026782 12.18570645 3.20745748 12.25 4.8125 C12.29640625 5.70582031 12.3428125 6.59914063 12.390625 7.51953125 C12 10 12 10 10.1796875 11.8359375 C7.11586671 13.47217154 5.27660714 12.92599767 2 12 C0 10 0 10 -0.1953125 7.6171875 C-0.17210938 6.71226563 -0.14890625 5.80734375 -0.125 4.875 C-0.10695313 3.96492188 -0.08890625 3.05484375 -0.0703125 2.1171875 C-0.04710938 1.41851562 -0.02390625 0.71984375 0 0 Z " fill="#0D1F55" transform="translate(20,60)"/>
<path d="M0 0 C3.96 0 7.92 0 12 0 C12 2.97 12 5.94 12 9 C8.04 9 4.08 9 0 9 C0 6.03 0 3.06 0 0 Z " fill="#06C9BD" transform="translate(50,5)"/>
<path d="M0 0 C1.65 0 3.3 0 5 0 C5 1.32 5 2.64 5 4 C5.78375 3.95875 6.5675 3.9175 7.375 3.875 C10 4 10 4 12 6 C12.1953125 8.3828125 12.1953125 8.3828125 12.125 11.125 C12.10695313 12.03507812 12.08890625 12.94515625 12.0703125 13.8828125 C12.04710937 14.58148438 12.02390625 15.28015625 12 16 C10.68 16 9.36 16 8 16 C8 13.36 8 10.72 8 8 C6.35 8.33 4.7 8.66 3 9 C2.01 12.465 2.01 12.465 1 16 C0.67 16 0.34 16 0 16 C0 10.72 0 5.44 0 0 Z " fill="#081B50" transform="translate(6,56)"/>
<path d="M0 0 C3.63 0 7.26 0 11 0 C11 2.97 11 5.94 11 9 C7.37 9 3.74 9 0 9 C0 6.03 0 3.06 0 0 Z " fill="#F44C11" transform="translate(30,21)"/>
<path d="M0 0 C0 3.63 0 7.26 0 11 C-0.99 11 -1.98 11 -3 11 C-2.79375 10.21625 -2.5875 9.4325 -2.375 8.625 C-2.25125 7.75875 -2.1275 6.8925 -2 6 C-4.1385485 3.8614515 -5.13275314 3.57344937 -8 3 C-7.43628586 6.26954202 -6.50037734 7.82575883 -4 10 C-6.875 10.625 -6.875 10.625 -10 11 C-12.32528287 8.67471713 -12.29511025 8.15334102 -12.3125 5 C-12.32925781 4.29875 -12.34601563 3.5975 -12.36328125 2.875 C-12.24339844 2.25625 -12.12351562 1.6375 -12 1 C-7.66314105 -1.8912393 -5.07581238 -0.73562498 0 0 Z " fill="#081C54" transform="translate(94,61)"/>
<path d="M0 0 C3.54470259 0.29539188 4.78215295 0.77626519 7.3125 3.375 C9 6 9 6 9 9 C6.03 9 3.06 9 0 9 C0 6.03 0 3.06 0 0 Z " fill="#0781D2" transform="translate(62,5)"/>
<path d="M0 0 C0.66 0 1.32 0 2 0 C2 12.87 2 25.74 2 39 C1.01 39 0.02 39 -1 39 C-0.505 38.505 -0.505 38.505 0 38 C0.21832989 33.60001055 0.18579146 29.19465188 0.18530273 24.78979492 C0.18748751 22.57516218 0.20563531 20.36102877 0.22460938 18.14648438 C0.22754356 16.74479338 0.22952819 15.3431 0.23046875 13.94140625 C0.23663208 12.01856812 0.23663208 12.01856812 0.24291992 10.05688477 C0.32404989 6.89146994 0.32404989 6.89146994 -2 5 C-1.46428571 1.46428571 -1.46428571 1.46428571 0 0 Z " fill="#F5A802" transform="translate(48,6)"/>
<path d="M0 0 C2.375 -0.125 2.375 -0.125 5 0 C7 2 7 2 7.1953125 4.3828125 C7.17210938 5.28773437 7.14890625 6.19265625 7.125 7.125 C7.10695313 8.03507812 7.08890625 8.94515625 7.0703125 9.8828125 C7.04710938 10.58148438 7.02390625 11.28015625 7 12 C5.68 12 4.36 12 3 12 C2.8046875 9.94921875 2.609375 7.8984375 2.4140625 5.84765625 C2.27742188 5.23792969 2.14078125 4.62820312 2 4 C1.34 3.67 0.68 3.34 0 3 C0 2.01 0 1.02 0 0 Z " fill="#091C53" transform="translate(73,60)"/>
<path d="M0 0 C4.75 0.875 4.75 0.875 7 2 C7 3.65 7 5.3 7 7 C4.50590939 8.57035335 3.29556584 9.0274945 0.3125 8.75 C-0.450625 8.5025 -1.21375 8.255 -2 8 C-2.33 7.34 -2.66 6.68 -3 6 C-1.02 6 0.96 6 3 6 C2.01 5.34 1.02 4.68 0 4 C0 2.68 0 1.36 0 0 Z " fill="#192D62" transform="translate(58,64)"/>
<path d="M0 0 C2.475 0.495 2.475 0.495 5 1 C4.67 4.3 4.34 7.6 4 11 C2.68 11 1.36 11 0 11 C0 7.37 0 3.74 0 0 Z " fill="#00134B" transform="translate(34,61)"/>
<path d="M0 0 C4.75 0.875 4.75 0.875 7 2 C6.34 3.98 5.68 5.96 5 8 C3.02 8.33 1.04 8.66 -1 9 C-1 8.34 -1 7.68 -1 7 C0.32 6.67 1.64 6.34 3 6 C2.01 5.34 1.02 4.68 0 4 C0 2.68 0 1.36 0 0 Z " fill="#253667" transform="translate(86,64)"/>
<path d="M0 0 C0.99 0.495 0.99 0.495 2 1 C1.67 1.66 1.34 2.32 1 3 C1.66 3 2.32 3 3 3 C3 5.64 3 8.28 3 11 C2.01 11 1.02 11 0 11 C0 7.37 0 3.74 0 0 Z " fill="#00104B" transform="translate(69,61)"/>
<path d="M0 0 C2.97 0 5.94 0 9 0 C7.35 1.65 5.7 3.3 4 5 C2.68 3.35 1.36 1.7 0 0 Z " fill="#002664" transform="translate(67,6)"/>
<path d="M0 0 C1.68762851 1.6454378 3.3540349 3.31288577 5 5 C5 5.33 5 5.66 5 6 C3.02 6.33 1.04 6.66 -1 7 C-1.66 6.01 -2.32 5.02 -3 4 C-2.67 3.34 -2.34 2.68 -2 2 C-1.34 2 -0.68 2 0 2 C0 1.34 0 0.68 0 0 Z " fill="#0C2158" transform="translate(85,65)"/>
<path d="M0 0 C0.66 0 1.32 0 2 0 C2 2.64 2 5.28 2 8 C0.68 7.01 -0.64 6.02 -2 5 C-1.125 1.125 -1.125 1.125 0 0 Z " fill="#E79206" transform="translate(48,6)"/>
<path d="M0 0 C1.65 0 3.3 0 5 0 C5 3.63 5 7.26 5 11 C4.01 11 3.02 11 2 11 C2.66 7.7 3.32 4.4 4 1 C2.68 0.67 1.36 0.34 0 0 Z " fill="#000C46" transform="translate(89,61)"/>
<path d="M0 0 C1.68762851 1.6454378 3.3540349 3.31288577 5 5 C5 5.33 5 5.66 5 6 C2.36 5.67 -0.28 5.34 -3 5 C-2.67 4.01 -2.34 3.02 -2 2 C-1.34 2 -0.68 2 0 2 C0 1.34 0 0.68 0 0 Z " fill="#0B215A" transform="translate(57,65)"/>
<path d="M0 0 C1.32 0 2.64 0 4 0 C3.67 1.65 3.34 3.3 3 5 C2.01 4.67 1.02 4.34 0 4 C0 2.68 0 1.36 0 0 Z " fill="#F4F5F7" transform="translate(86,64)"/>
<path d="M0 0 C1.32 0 2.64 0 4 0 C3.67 1.65 3.34 3.3 3 5 C2.01 4.67 1.02 4.34 0 4 C0 2.68 0 1.36 0 0 Z " fill="#F3F4F6" transform="translate(58,64)"/>
</svg>
